PathFileType	4	(X/Y/Z)	5_coords_data.trc
DataRate	CameraRate	NumFrames	NumMarkers	Units	OrigDataRate	OrigDataStartFrame	OrigNumFrames
30.0	30.0	5	21	m	30.0	39	67
Frame#	Time	THUMB_TIP	THUMB_IP	THUMB_MCP	THUMB_CMC	INDEX_TIP	INDEX_DIP	INDEX_PIP	INDEX_MCP	MIDDLE_TIP	MIDDLE_DIP	MIDDLE_PIP	MIDDLE_MCP	RING_TIP	RING_DIP	RING_PIP	RING_MCP	PINKY_TIP	PINKY_DIP	PINKY_PIP	PINKY_MCP	WRIST
X1	Y1	Z1	X2	Y2	Z2	X3	Y3	Z3	X4	Y4	Z4	X5	Y5	Z5	X6	Y6	Z6	X7	Y7	Z7	X8	Y8	Z8	X9	Y9	Z9	X10	Y10	Z10	X11	Y11	Z11	X12	Y12	Z12	X13	Y13	Z13	X14	Y14	Z14	X15	Y15	Z15	X16	Y16	Z16	X17	Y17	Z17	X18	Y18	Z18	X19	Y19	Z19	X20	Y20	Z20	X21	Y21	Z21
38	1.2666666666666666	-0.007965149879455567	-0.12321399688720704	0.9991580200195312	-0.017610300064086915	-0.104322998046875	1.014030029296875	-0.03537139892578125	-0.09530390167236329	1.037719970703125	-0.041033199310302734	-0.06426950073242188	1.0478599853515624	-0.017272899627685547	-0.09827999877929687	0.9223820190429688	-0.030402700424194337	-0.09505829620361328	0.94035400390625	-0.043547500610351564	-0.09121759796142578	0.9594509887695313	-0.055331798553466795	-0.08211910247802734	0.9937479858398437	-0.00910498046875	-0.06562419891357422	0.9090499877929688	-0.02337540054321289	-0.06604119873046875	0.928656982421875	-0.0410807991027832	-0.06504530334472657	0.952594970703125	-0.05730989837646484	-0.061387699127197264	0.9879249877929688	-0.008556429862976073	-0.04248780059814453	0.9145889892578125	-0.022767799377441406	-0.041571300506591795	0.9330120239257812	-0.03972959899902344	-0.041214698791503905	0.954531005859375	-0.05382749938964844	-0.04243069839477539	0.9897210083007812	-0.013323599815368653	-0.016710699081420897	0.9365009765625	-0.025271799087524412	-0.018196800231933593	0.952739990234375	-0.03543870162963867	-0.020750200271606446	0.9682969970703125	-0.044823799133300785	-0.02598240089416504	0.9927000122070313	-0.058516101837158205	-0.034608898162841795	1.06156005859375
39	1.3	-0.007916309833526612	-0.123177001953125	0.9991810302734375	-0.017568500518798828	-0.10429199981689453	1.0140399780273437	-0.03532569885253906	-0.09530840301513673	1.0376500244140625	-0.041026798248291016	-0.06418450164794921	1.0478699951171875	-0.017315299987792968	-0.09820269775390625	0.922405029296875	-0.030417999267578124	-0.09499520111083984	0.9403629760742187	-0.04351319885253906	-0.09122650146484375	0.9593820190429687	-0.05548139953613281	-0.08216940307617188	0.9938099975585938	-0.009097539901733398	-0.065591796875	0.9090830078125	-0.023401100158691405	-0.0660009002685547	0.9286599731445313	-0.041111801147460936	-0.06502130126953125	0.9525850219726563	-0.057340999603271485	-0.0613676986694336	0.9879929809570313	-0.008583999633789063	-0.04246540069580078	0.91460498046875	-0.022798999786376953	-0.041539398193359375	0.9330490112304688	-0.03976100158691406	-0.04117599868774414	0.9545399780273438	-0.05385039901733398	-0.04241070175170898	0.9897839965820312	-0.013418399810791015	-0.01667679977416992	0.9364990234375	-0.02534280014038086	-0.01816699981689453	0.9527420043945313	-0.03552259826660156	-0.020716100692749023	0.9682750244140625	-0.0448567008972168	-0.025995100021362304	0.9926630249023437	-0.058568500518798826	-0.034592899322509765	1.0615999755859375
40	1.3333333333333333	-0.008009329795837402	-0.12311399841308594	0.9991640014648437	-0.01766699981689453	-0.10426200103759765	1.0140499877929687	-0.035406299591064457	-0.09528500366210937	1.037699951171875	-0.04111209869384766	-0.06411389923095703	1.0478900146484376	-0.017386699676513673	-0.09814260101318359	0.9224010009765625	-0.030511899948120116	-0.09496189880371093	0.9403499755859375	-0.04364289855957031	-0.09115679931640625	0.9594089965820313	-0.05551689910888672	-0.08212000274658203	0.9935289916992187	-0.009188529968261718	-0.06557929992675782	0.9091110229492188	-0.02345840072631836	-0.06595960235595703	0.9286820068359375	-0.04119649887084961	-0.06496739959716796	0.9525830078125	-0.0574374008178711	-0.061309398651123045	0.9879299926757813	-0.008699299812316895	-0.04241450119018555	0.9145859985351562	-0.02288479995727539	-0.041491500854492186	0.933041015625	-0.03981829833984375	-0.04113010025024414	0.9545830078125	-0.05400490188598633	-0.04235660171508789	0.9896669921875	-0.013738699913024902	-0.01666659927368164	0.9363489990234375	-0.025570899963378906	-0.018121999740600588	0.9526090087890625	-0.03570169830322266	-0.02065290069580078	0.96818701171875	-0.04496419906616211	-0.025950099945068358	0.9926699829101563	-0.058597400665283204	-0.03451589965820313	1.0616400146484375
41	1.3666666666666667	-0.008041529655456544	-0.12306099700927735	0.9991270141601563	-0.017724100112915038	-0.10424400329589843	1.01397998046875	-0.03543230056762695	-0.0952301025390625	1.0377099609375	-0.04118870162963867	-0.06408390045166015	1.0479100341796874	-0.017334199905395507	-0.09803620147705078	0.9224869995117188	-0.03046660041809082	-0.09486090087890625	0.9403599853515625	-0.04360749816894531	-0.09108450317382813	0.959427978515625	-0.055422599792480466	-0.08207150268554687	0.9937100219726562	-0.009023770332336426	-0.0655615005493164	0.90922900390625	-0.023395500183105468	-0.06594599914550782	0.9287630004882812	-0.04118170166015625	-0.06495960235595703	0.9526270141601563	-0.05744020080566406	-0.061303398132324216	0.9879000244140625	-0.008646459579467773	-0.0424276008605957	0.9146829833984375	-0.022869199752807618	-0.0415010986328125	0.933094970703125	-0.03985770034790039	-0.041159698486328125	0.9546069946289063	-0.05404930114746094	-0.04235010147094727	0.9896409912109375	-0.014078700065612793	-0.016757699966430666	0.9362219848632812	-0.025876300811767578	-0.018217599868774415	0.9525789794921875	-0.0359010009765625	-0.020724300384521485	0.968198974609375	-0.0450817985534668	-0.025840599060058592	0.992697998046875	-0.058768901824951175	-0.03438330078125	1.0616600341796876
42	1.4	-0.008005979537963868	-0.12306500244140625	0.9991190185546875	-0.017688899993896483	-0.10422000122070313	1.013969970703125	-0.03540499877929688	-0.095260498046875	1.03775	-0.04126070022583008	-0.0641322021484375	1.0479599609375	-0.016830999374389647	-0.09780280303955079	0.9227310180664062	-0.03011370086669922	-0.09469750213623047	0.9405349731445313	-0.043376701354980465	-0.09100779724121094	0.9594879760742188	-0.05547620010375977	-0.08220659637451172	0.9936729736328125	-0.008492520332336426	-0.06565219879150391	0.9096320190429688	-0.022948799133300782	-0.06603170013427734	0.9290430297851563	-0.04092449951171875	-0.06505870056152344	0.9527429809570312	-0.05741059875488281	-0.06145050048828125	0.987969970703125	-0.008164950370788574	-0.04257199859619141	0.91510400390625	-0.022531200408935546	-0.04163769912719727	0.9333380126953125	-0.03971549987792969	-0.041273998260498046	0.9547379760742187	-0.0541952018737793	-0.042459400177001956	0.9898090209960938	-0.014374300003051758	-0.01719860076904297	0.9361599731445313	-0.02622380065917969	-0.01851959991455078	0.9525009765625	-0.03630580139160156	-0.020921600341796874	0.9681019897460937	-0.045350101470947264	-0.02589629936218262	0.9927160034179687	-0.05882350158691406	-0.03465850067138672	1.0618199462890625
